{"title":"Trans-Siberian Orchestra - Live With Kelly and Michael 2013 HDTV","uid":9392464,"size":645529388,"categoryP":"video","categoryS":"music_videos","magnet":"?xt=urn:btih:4b78ab3fa25a5f6f6d0e51e7cdfbb4b61663a373&amp;dn=Trans-Siberian+Orchestra+-+Live+With+Kelly+and+Michael+2013+HDTV&amp;tr=udp%3A%2F%2Ftracker.openbittorrent.com%3A80&amp;tr=udp%3A%2F%2Fopen.demonii.com%3A1337&amp;tr=udp%3A%2F%2Ftracker.coppersurfer.tk%3A6969&amp;tr=udp%3A%2F%2Fexodus.desync.com%3A6969","seeders":1,"leechers":0,"uploader":"NotHuman","files":-1,"time":1387909555,"description":"Trans-Siberian Orchestra\n&quot;Dreams of Fireflies&quot; (On a Christmas Night)\nDecember 24th, 2013\nLive With Kelly and Michael\n\nThis video was captured directly from a digital cable box's HDMI output to MPEG4 in 1080i using a Game Capture HD and an HDMI splitter to remove HDCP.  \n\nSince it was captured from cable, it is interlaced, and no re-encoding has been performed.  If you are playing back on a computer, please enable de-interlacing on your media player.  See below for complete technical specs on the video.\n\nScreen shots:\n &lt;a href=&quot;\nhttp://postimg.org/image/k9hp4mjhn/&quot; rel=&quot;nofollow&quot; target=&quot;_NEW&quot;&gt;\nhttp://postimg.org/image/k9hp4mjhn/&lt;/a&gt;\n &lt;a href=&quot;\nhttp://postimg.org/image/nwxgaoror/&quot; rel=&quot;nofollow&quot; target=&quot;_NEW&quot;&gt;\nhttp://postimg.org/image/nwxgaoror/&lt;/a&gt;\n  &lt;a href=&quot;\nhttp://postimg.org/image/rf9g72skr/&quot; rel=&quot;nofollow&quot; target=&quot;_NEW&quot;&gt;\nhttp://postimg.org/image/rf9g72skr/&lt;/a&gt;\n &lt;a href=&quot;\nhttp://postimg.org/image/5et3qg9wr/&quot; rel=&quot;nofollow&quot; target=&quot;_NEW&quot;&gt;\nhttp://postimg.org/image/5et3qg9wr/&lt;/a&gt;\n\n\nGeneral\nComplete name                            : TSO - Dreams of Fireflies - Kelly and Michael 2013-12-24.mp4\nFormat                                   : MPEG-4\nFormat profile                           : Base Media / Version 2\nCodec ID                                 : mp42\nFile size                                : 616 MiB\nDuration                                 : 4mn 9s\nOverall bit rate mode                    : Variable\nOverall bit rate                         : 20.7 Mbps\nEncoded date                             : UTC 2013-12-24 16:12:39\nTagged date                              : UTC 2013-12-24 16:12:47\n\nVideo\nID                                       : 1\nFormat                                   : AVC\nFormat/Info                              : Advanced Video Codec\nFormat profile                           : &lt;a class=&quot;__cf_email__&quot; href=&quot;/cdn-cgi/l/email-protection&quot; data-cfemail=&quot;034b6a646b434f372d33&quot;&gt;[email&amp;#160;protected]&lt;/a&gt;&lt;script cf-hash='f9e31' type=&quot;text/javascript&quot;&gt;\n/* &lt;![CDATA[ */!function(){try{var t=&quot;currentScript&quot;in document?document.currentScript:function(){for(var t=document.getElementsByTagName(&quot;script&quot;),e=t.length;e--;)if(t[e].getAttribute(&quot;cf-hash&quot;))return t[e]}();if(t&amp;&amp;t.previousSibling){var e,r,n,i,c=t.previousSibling,a=c.getAttribute(&quot;data-cfemail&quot;);if(a){for(e=&quot;&quot;,r=parseInt(a.substr(0,2),16),n=2;a.length-n;n+=2)i=parseInt(a.substr(n,2),16)^r,e+=String.fromCharCode(i);e=document.createTextNode(e),c.parentNode.replaceChild(e,c)}}}catch(u){}}();/* ]]&gt; */&lt;/script&gt;\nFormat settings, CABAC                   : Yes\nFormat settings, ReFrames                : 2 frames\nFormat settings, GOP                     : M=3, N=15\nCodec ID                                 : avc1\nCodec ID/Info                            : Advanced Video Coding\nDuration                                 : 4mn 9s\nSource duration                          : 4mn 9s\nBit rate mode                            : Variable\nBit rate                                 : 20.5 Mbps\nMaximum bit rate                         : 30.0 Mbps\nWidth                                    : 1 920 pixels\nHeight                                   : 1 080 pixels\nDisplay aspect ratio                     : 16:9\nFrame rate mode                          : Variable\nFrame rate                               : 29.970 fps\nMinimum frame rate                       : 29.970 fps\nMaximum frame rate                       : 30.000 fps\nColor space                              : YUV\nChroma subsampling                       : 4:2:0\nBit depth                                : 8 bits\nScan type                                : Interlaced\nScan order                               : Bottom Field First\nBits/(Pixel*Frame)                       : 0.330\nStream size                              : 609 MiB (99%)\nSource stream size                       : 609 MiB (99%)\nLanguage                                 : English\nEncoded date                             : UTC 2013-12-24 16:12:38\nTagged date                              : UTC 2013-12-24 16:12:47\nColor primaries                          : BT.709\nTransfer characteristics                 : BT.709\nMatrix coefficients                      : BT.709\n\nAudio\nID                                       : 2\nFormat                                   : AAC\nFormat/Info                              : Advanced Audio Codec\nFormat profile                           : LC\nCodec ID                                 : 40\nDuration                                 : 4mn 9s\nSource duration                          : 4mn 9s\nBit rate mode                            : Constant\nBit rate                                 : 219 Kbps\nNominal bit rate                         : 128 Kbps\nChannel(s)                               : 2 channels\nChannel positions                        : Front: L R\nSampling rate                            : 48.0 KHz\nCompression mode                         : Lossy\nDelay relative to video                  : 117ms\nStream size                              : 6.51 MiB (1%)\nSource stream size                       : 6.51 MiB (1%)\nLanguage                                 : English\nEncoded date                             : UTC 2013-12-24 16:12:38\nTagged date                              : UTC 2013-12-24 16:12:47\n","torrent":{"xt":"urn:btih:4b78ab3fa25a5f6f6d0e51e7cdfbb4b61663a373","amp;dn":"Trans-Siberian+Orchestra+-+Live+With+Kelly+and+Michael+2013+HDTV","amp;tr":["udp%3A%2F%2Ftracker.openbittorrent.com%3A80","udp%3A%2F%2Fopen.demonii.com%3A1337","udp%3A%2F%2Ftracker.coppersurfer.tk%3A6969","udp%3A%2F%2Fexodus.desync.com%3A6969"],"infoHash":"4b78ab3fa25a5f6f6d0e51e7cdfbb4b61663a373","infoHashBuffer":{"type":"Buffer","data":[75,120,171,63,162,90,95,111,109,14,81,231,205,251,180,182,22,99,163,115]},"announce":[],"urlList":[]}}